<?xml version="1.0" encoding="utf-8"?>
<!-- Generator: Adobe Illustrator 21.1.0, SVG Export Plug-In . SVG Version: 6.00 Build 0)  -->
<svg version="1.1" id="Calque_1" xmlns="http://www.w3.org/2000/svg" xmlns:xlink="http://www.w3.org/1999/xlink" x="0px" y="0px"
	 width="170px" height="170px" viewBox="0 0 170 170" style="enable-background:new 0 0 170 170;" xml:space="preserve">
<style type="text/css">
	.st0{fill:#9E9E9E;}
</style>
<g>
	<path class="st0" d="M85.1,91.1"/>
</g>
<g>
	<path class="st0" d="M85.1,91.1"/>
</g>
<path class="st0" d="M62.4,42.8H36.7c-2.4,0-4.3,1.9-4.3,4.3s1.9,4.3,4.3,4.3h25.7c2.4,0,4.3-1.9,4.3-4.3S64.8,42.8,62.4,42.8z"/>
<path class="st0" d="M62.4,60.1H36.7c-2.4,0-4.3,1.9-4.3,4.3c0,2.4,1.9,4.3,4.3,4.3h25.7c2.4,0,4.3-1.9,4.3-4.3
	C66.7,62,64.8,60.1,62.4,60.1z"/>
<path class="st0" d="M62.4,77.3H36.7c-2.4,0-4.3,1.9-4.3,4.3s1.9,4.3,4.3,4.3h25.7c2.4,0,4.3-1.9,4.3-4.3S64.8,77.3,62.4,77.3z"/>
<path class="st0" d="M62.4,94.6H36.7c-2.4,0-4.3,1.9-4.3,4.3c0,2.4,1.9,4.3,4.3,4.3h25.7c2.4,0,4.3-1.9,4.3-4.3
	C66.7,96.5,64.8,94.6,62.4,94.6z"/>
<path class="st0" d="M62.4,112.1H36.7c-2.4,0-4.3,1.9-4.3,4.3c0,2.4,1.9,4.3,4.3,4.3h25.7c2.4,0,4.3-1.9,4.3-4.3
	C66.7,114,64.8,112.1,62.4,112.1z"/>
<path class="st0" d="M76.9,51.4h25.7c2.4,0,4.3-1.9,4.3-4.3s-1.9-4.3-4.3-4.3H76.9c-2.4,0-4.3,1.9-4.3,4.3S74.5,51.4,76.9,51.4z"/>
<path class="st0" d="M76.9,68.7h25.7c2.4,0,4.3-1.9,4.3-4.3c0-2.4-1.9-4.3-4.3-4.3H76.9c-2.4,0-4.3,1.9-4.3,4.3
	C72.6,66.8,74.5,68.7,76.9,68.7z"/>
<path class="st0" d="M93.6,81.6c0-2.4-1.9-4.3-4.3-4.3H76.9c-2.4,0-4.3,1.9-4.3,4.3s1.9,4.3,4.3,4.3h12.4
	C91.7,85.9,93.6,84,93.6,81.6z"/>
<path class="st0" d="M134.4,113.9c-1.9-1.5-4.6-1.2-6.1,0.7l-11.1,13.8l-6.9-5c-1.9-1.4-4.6-1-6,1c-1.4,1.9-1,4.6,1,6l10.2,7.4
	c0.8,0.6,1.6,0.8,2.5,0.8c1.3,0,2.5-0.6,3.4-1.6l13.7-17C136.6,118.1,136.3,115.4,134.4,113.9z"/>
<path class="st0" d="M146.7,100.7c-5.6-5.7-12.8-9.3-20.7-10.4V31.8c0-9.6-7.8-17.4-17.4-17.4H33.4c-9.6,0-17.4,7.8-17.4,17.4v99.9
	c0,9.6,7.8,17.4,17.4,17.4H94c6.8,8,16.6,12.6,27.2,12.6c19.7,0,35.8-16.1,35.8-35.8C157,116.3,153.4,107.4,146.7,100.7z
	 M24.6,131.7V31.8c0-4.8,3.9-8.7,8.7-8.7h75.3c4.8,0,8.7,3.9,8.7,8.7v58.3c-18,1.9-32.1,17.1-32.1,35.6c0,5.1,1.1,10.1,3.1,14.6
	H33.4C28.5,140.4,24.6,136.5,24.6,131.7z M121.2,153c-8.6,0-16.5-4-21.7-10.8c-3.6-4.7-5.5-10.4-5.5-16.4c0-15,12.2-27.2,27.2-27.2
	c0.1,0,0.3,0,0.4,0l0.1,0c7.2,0.1,13.9,3,18.9,8.1c5,5.1,7.8,11.9,7.8,19.1C148.4,140.8,136.2,153,121.2,153z"/>
</svg>
