<svg id="Calque_1" data-name="Calque 1" xmlns="http://www.w3.org/2000/svg" width="197.21" height="42" viewBox="0 0 197.21 42">
  <defs>
    <style>
      .cls-1 {
        fill: #fff;
      }
    </style>
  </defs>
  <title>MessageriePlan de travail 1 copie 15</title>
  <g>
    <path class="cls-1" d="M168.24,39.76h-1.13c-7.65-6.43-12.26-10.42-15.4-13.29-2.45-2.21-4.18-3.8-7.1-6.76h-.09c.09,1.92.09,3.15.09,4.32V39.3h-8.08v-37h1.13c8,6.76,12.68,10.8,15.83,13.76,2.11,2,4.23,3.95,6.62,6.39h.1c-.05-2.4-.05-3.81-.05-5.26V2.66h8.08v37.1Z"/>
    <path class="cls-1" d="M193.32,29.62c0,6.11-5.17,10.24-12.31,10.24a19.17,19.17,0,0,1-7.32-1.27c0-2.72.09-3.66.23-7.75H174a14.73,14.73,0,0,0,1.88.8,13.2,13.2,0,0,0,4.14.61c2.25,0,3.9-1,3.9-3.15,0-1.27-.9-2.44-2.4-3.66a44.74,44.74,0,0,1-3.66-3.29,12.46,12.46,0,0,1-4.14-8.92c0-5.5,3.67-10.81,12.59-10.81a20,20,0,0,1,5.22.66c-.1,2.87-.15,3.66-.24,7.7h-.09a15,15,0,0,0-1.84-.56,10.39,10.39,0,0,0-2.25-.23c-2.49,0-4.27,1.17-4.27,3.19A4,4,0,0,0,184.16,16c.8.9,2.4,2.17,4.37,4,2.91,2.72,4.79,5.4,4.79,9.53Z"/>
    <path class="cls-1" d="M126.06,22.81,117.18,2.53l-4,8.59c1.61,4.63,5.73,16,5.73,16l-13.22,0-3.28,7h19c1.08,2.73,1.93,4.8,2,5.12v.15h9.77v-.15C133.06,38.83,132.17,36.76,126.06,22.81Z"/>
    <path class="cls-1" d="M71.23,20.27c0,7-3,12.5-8.32,16-3.24,2.16-7.56,3.2-12.44,3.2-2.35,0-4.61,0-6.11-.1-1,0-2.39-.14-3.38-.23V2.85c.94-.1,2.11-.24,4.27-.33s4-.14,5.78-.14c5.59,0,9.68,1.12,12.73,3,5.68,3.52,7.47,9.49,7.47,14.84Zm-9,.19a10.22,10.22,0,0,0-3.48-8.22,10.62,10.62,0,0,0-6.67-2c-.89,0-1.78.09-2.39.14v21c0,.09,0,.09.09.09a15.77,15.77,0,0,0,2.16.14,10.26,10.26,0,0,0,5.92-1.83,10.78,10.78,0,0,0,4.37-9.2Z"/>
    <path class="cls-1" d="M89.83,40H88.7L78.23,18.16C72,5.19,71,3.08,70.85,2.75V2.66h9.91v.09c.1.33,1,2.4,4.89,10.85A96.57,96.57,0,0,1,89.5,23h.14a97.85,97.85,0,0,1,3.76-9.35c3.76-8.36,4.74-10.57,4.88-10.9V2.66h9.26v.09c-.14.33-1.08,2.44-7.28,15.41Z"/>
    <path class="cls-1" d="M14.93,34c-1.13,2.73-2,4.8-2.12,5.12v.15H3.89v-.15C4,38.83,5,36.76,11.17,22.81L20.37,2H21.6l9.11,20.81,7.14,16.34v.15H28.08v-.15c-.1-.32-.94-2.39-2-5.12Zm8.59-7V27a81.93,81.93,0,0,1-2.91-8.13h-.05a82.53,82.53,0,0,1-3,8.13v.09Z"/>
  </g>
</svg>
