<?xml version="1.0" encoding="utf-8"?>
<!-- Generator: Adobe Illustrator 23.0.3, SVG Export Plug-In . SVG Version: 6.00 Build 0)  -->
<svg version="1.1" id="Calque_1" xmlns="http://www.w3.org/2000/svg" xmlns:xlink="http://www.w3.org/1999/xlink" x="0px" y="0px"
	 width="60px" height="60px" viewBox="0 0 60 60" style="enable-background:new 0 0 60 60;" xml:space="preserve">
<style type="text/css">
	.st0{fill:#59A92E;}
</style>
<g>
	<path class="st0" d="M55.2,32.9l-4.1-8.3c-0.1-0.3-0.3-0.6-0.7-0.8c-0.4-0.2-1.4-0.7-7,2.2l-6.9-0.1c-3.1-1.3-5.9-0.7-7.1-0.3
		c-0.2,0-0.5,0-0.7,0.1L21.1,26l-6.4-0.3c-1.4-1-3.7-2.3-4.7-2c-0.5,0.1-1.2,0.3-4.2,7.7l-3.7,8.5C2,40.2,2,40.5,2,40.9
		c0.1,0.4,0.4,1.6,6.5,3.9l0.2,0.1c0.3,0,0.9,0.1,2-1.1c0.6,0.1,1.3,0.3,1.7,0.8c-0.1,0.3-0.1,0.6,0,0.9c0.1,0.8,0.5,1.6,1.1,2.1
		c0.7,0.6,1.6,0.8,2.4,0.6c0.2,0.6,0.5,1.1,1,1.5c0.7,0.5,1.5,0.8,2.3,0.7c0.1,0.8,0.5,1.5,1.1,2c0.5,0.4,1.2,0.7,1.9,0.7
		c0.1,0.7,0.5,1.4,1.1,1.9c1.3,1.1,3.3,0.9,4.3-0.4l0.6-0.7l0.5,0.5c1,1,2.2,1.5,3.2,1.5c0.7,0,1.4-0.2,1.9-0.7
		c0.4-0.3,0.6-0.8,0.7-1.3c1.1,0.4,2.4,0.2,3.2-0.6c0.6-0.5,0.9-1.3,0.9-2.1c0,0,0,0,0-0.1c1,0.2,1.9,0,2.6-0.7
		c0.5-0.4,0.8-1.1,0.9-1.7c1,0.2,2,0,2.7-0.6c0.5-0.5,0.8-1.2,0.8-2c0,0,0,0,0-0.1c0.2,0,0.4,0,0.6,0c0.7,0,1.2-0.4,1.7-0.9
		c0.5-0.7,1.3-1.4,1.9-2c0,0,0,0,0,0c0.6,0.6,1.6,0.5,2.4,0.4c1.2-0.2,5.2-1.3,5.8-2.4C58.5,40.6,58.8,40,55.2,32.9z M9.8,41.3
		c-0.1,0.2-0.3,0.4-0.4,0.6c0,0,0,0,0,0.1c-0.2,0.3-0.4,0.5-0.5,0.6c-1.8-0.7-3.8-1.6-4.6-2.2l3.5-8.2l0,0c1-2.4,2.3-5.2,2.9-6.2
		c0.7,0.3,2,1,3,1.7c0,0,0.1,0.1,0.1,0.1c0.4,0.3,0.7,0.6,0.9,0.8C14.4,29.9,12,35.9,9.8,41.3z M16.3,45.6c-0.3,0.4-0.9,0.5-1.3,0.1
		c-0.2-0.2-0.3-0.4-0.3-0.6c0-0.1,0-0.3,0-0.4c0,0,0,0,0-0.1c0-0.1,0.1-0.2,0.1-0.2l2.9-3.5c0.3-0.4,0.9-0.5,1.3-0.1
		c0.2,0.2,0.3,0.4,0.3,0.6c0,0.2,0,0.5-0.2,0.7L16.3,45.6z M19.7,47.8L19.7,47.8c-0.3,0.4-0.9,0.5-1.3,0.1c-0.2-0.2-0.3-0.4-0.3-0.6
		c0-0.2,0-0.5,0.2-0.7l2.9-3.5c0.2-0.2,0.5-0.3,0.7-0.3c0.2,0,0.4,0.1,0.6,0.2c0.2,0.2,0.3,0.4,0.3,0.6c0,0.2,0,0.5-0.2,0.7
		L19.7,47.8z M23,50.5c0,0.1-0.1,0.1-0.1,0.2c-0.3,0.2-0.7,0.1-1-0.1c-0.2-0.2-0.3-0.4-0.3-0.6c0-0.2,0-0.5,0.2-0.7l2.9-3.5
		c0.2-0.2,0.5-0.3,0.7-0.3c0.2,0,0.4,0.1,0.6,0.2c0.2,0.2,0.3,0.4,0.3,0.6c0,0.1,0,0.3,0,0.4c-0.1,0.1-0.2,0.2-0.3,0.3L23,50.5z
		 M28.9,49.5L26.1,53c-0.3,0.4-0.9,0.5-1.3,0.1c-0.2-0.2-0.3-0.4-0.3-0.6c0-0.1,0-0.3,0-0.4c0.1-0.1,0.2-0.2,0.3-0.3l2.9-3.5
		c0-0.1,0.1-0.1,0.1-0.2c0.3-0.2,0.7-0.1,1,0.1c0,0,0.1,0,0.1,0.1c0,0,0,0,0,0l0,0c0.1,0.1,0.2,0.3,0.2,0.5
		C29.2,49.1,29.1,49.4,28.9,49.5z M32.5,53.5c-0.3,0.3-1.3,0.1-2.1-0.7L29.7,52l0.9-1.1c0.1-0.1,0.2-0.3,0.3-0.5l0.9,1
		c0.6,0.6,0.8,1.3,0.8,1.6C32.6,53.3,32.5,53.4,32.5,53.5z M43.6,46.4c-0.3,0.3-1.3,0.1-2.1-0.7l-4.7-5c0,0-0.1-0.1-0.1-0.1
		l-1.7-1.8c-0.4-0.4-1.1-0.5-1.5,0c-0.4,0.4-0.5,1.1,0,1.5l6.2,6.6c0.4,0.4,0.6,0.9,0.6,1.4c0,0.2,0,0.4-0.2,0.5
		c-0.4,0.3-1.2,0.2-1.9-0.5l-4.3-4.4c0,0,0,0,0,0L31,41c-0.4-0.4-1.1-0.4-1.5,0c-0.4,0.4-0.4,1.1,0,1.5l2.8,2.9l3.9,4.5
		c0.4,0.4,0.6,0.8,0.5,1.3c0,0.2,0,0.4-0.2,0.6c-0.4,0.3-1.2,0.2-1.8-0.4L33.4,50c0,0,0,0,0,0c0,0,0,0,0,0l-2.8-2.9
		c-0.1-0.1-0.2-0.2-0.4-0.4c-0.5-0.4-1.2-0.7-1.9-0.7c-0.1-0.7-0.5-1.4-1.1-1.9c-0.7-0.5-1.5-0.8-2.3-0.7c-0.1-0.8-0.5-1.5-1.1-2
		c-0.7-0.6-1.6-0.8-2.4-0.6c-0.2-0.6-0.5-1.1-1-1.5c-1.3-1.1-3.3-0.9-4.3,0.4l-2.4,2.9c-0.5-0.4-1.1-0.6-1.6-0.8
		c1.6-3.9,4.9-12.2,5-13.2c0-0.2,0-0.3,0-0.5l4.2,0.2l5.5-0.2c-3,3-3.9,4.1-4.3,4.6c-1.1,1.5-2.2,3.5-1.6,4.7
		c0.6,1.2,2.7,2.6,4.1,2.1c0.6-0.2,2.4-1.9,5.5-5.1c0,0,0.4-0.4,0.9-0.5c0.3,0,0.6,0.1,0.9,0.4c0.9,0.8,3.5,3.1,5.9,5.4c0,0,0,0,0,0
		l5,4.7c0.6,0.6,0.8,1.3,0.8,1.7C43.8,46.1,43.7,46.3,43.6,46.4z M46.5,43.8C46.4,43.8,46.4,43.8,46.5,43.8
		c-0.4,0.1-1.2-0.4-1.6-0.8c-0.4-0.4-9.5-8.7-11.3-10.3c-0.9-0.8-1.7-1-2.3-1c-0.1,0-0.2,0-0.2,0c-1.4,0.1-2.3,1.1-2.3,1.2
		c-1.9,1.9-4.1,4.1-4.7,4.5c-0.3-0.1-1.1-0.5-1.3-0.9c0.1-0.4,0.7-1.6,1.4-2.6l0.2-0.2l0-0.1c0.6-0.7,3.1-3.4,5.6-5.7l0,0
		c0,0,2.8-1.2,6.2,0.2l0.2,0.1l6.4,0.1c0.1,0.5,0.2,1.2,0.5,2l0.1,0.1c1.4,2.7,4.2,8.1,5.8,11C48.2,41.8,47.2,42.8,46.5,43.8z
		 M51.5,41.5c-0.1-0.1-0.2-0.3-0.3-0.4c0,0-0.1-0.1-0.1-0.1c-1.1-1.9-3.8-6.9-6.1-11.5c-0.2-0.5-0.3-1.2-0.4-1.5
		c1.8-0.9,3.8-1.8,4.7-2l3.9,8l0,0c1.2,2.3,2.5,5.1,2.8,6.2C55.1,40.7,52.4,41.5,51.5,41.5z"/>
</g>
<g>
	<path class="st0" d="M50.2,9.7c-0.1-0.2-0.2-0.4-0.4-0.6c-1-1.6-1.9-3.2-2.9-4.8c-0.5-0.8-0.5-0.8-1.3-0.4C39,7.6,32,8.8,24.5,7.5
		c-3.5-0.6-6.8-1.9-9.9-3.6c-0.5-0.3-0.8-0.3-1.1,0.3c-1,1.7-2,3.3-3,5c-0.1,0.2-0.2,0.4-0.3,0.5C21.1,15.8,38.1,16.4,50.2,9.7z
		 M26.2,10.6c0-0.3,0.5-0.7,0.9-0.7c1.1-0.2,2.1-0.4,3.3-0.5c1.1,0.2,2.2,0.3,3.3,0.6c0.3,0.1,0.8,0.5,0.8,0.7
		c0,0.3-0.3,0.7-0.7,0.9c-2.3,1.1-4.6,1.1-6.9,0C26.6,11.3,26.2,10.8,26.2,10.6z"/>
</g>
<g>
	<path class="st0" d="M35.1,18.7c5.3-0.6,10.4-2,15.1-4.6c-0.5-0.7-0.9-1.4-1.3-2c-12.5,5.5-24.9,5.3-37.4,0
		c-0.1,0.1-0.2,0.2-0.3,0.4c-0.3,0.5-0.7,1.1-1,1.6C14.2,16.5,23.9,20,35.1,18.7z"/>
</g>
<g>
	<path class="st0" d="M11.4,16.6c-0.4,0.6-0.8,1.3-1.2,1.9c4.6,2.7,14.3,5.9,25.2,4.6c5.2-0.6,10.1-2,14.8-4.5
		c-0.5-0.7-0.9-1.3-1.2-1.9C36.4,22.1,24,22,11.4,16.6z"/>
</g>
</svg>
