<?xml version="1.0" encoding="utf-8"?>
<!-- Generator: Adobe Illustrator 23.0.3, SVG Export Plug-In . SVG Version: 6.00 Build 0)  -->
<svg version="1.1" id="Calque_1" xmlns="http://www.w3.org/2000/svg" xmlns:xlink="http://www.w3.org/1999/xlink" x="0px" y="0px"
	 width="60px" height="60px" viewBox="0 0 60 60" style="enable-background:new 0 0 60 60;" xml:space="preserve">
<style type="text/css">
	.st0{fill:#95C11F;}
</style>
<g>
	<path class="st0" d="M30.4,2.7C15.3,2.7,3.1,14.9,3.1,30s12.2,27.3,27.3,27.3S57.7,45.1,57.7,30S45.5,2.7,30.4,2.7z M17.6,29.9
		c-0.9,0-1.9,0-3,0c0.1-0.6,0.1-1.3,0.2-1.9c1-4,3.5-6.5,7.5-7.4c1.1-0.2,2.3-0.2,3.4-0.2c3.3,0,6.6,0,9.9,0c0.1,0,0.2,0,0.4-0.1
		c-1.2-1.2-2.4-2.4-3.5-3.5c0.7-0.7,1.5-1.4,2.2-2.2c0.6,0.7,1.3,1.4,2,2.1c1.4,1.4,2.7,2.7,4.1,4.1c0.8,0.8,0.8,1.6,0,2.4
		c-2,2-4,4-6,6c-0.1,0.1-0.1,0.1-0.2,0.2c-0.7-0.7-1.4-1.4-2.2-2.2c1.2-1.2,2.4-2.4,3.6-3.6c-0.3,0-0.4,0-0.6,0c-3.7,0-7.5,0-11.2,0
		c-2.8,0-4.9,1.2-6.1,3.8C17.9,28.2,17.8,29.1,17.6,29.9z M46.1,31.4c-0.6,3.6-2.6,6.1-6,7.4c-1.1,0.4-2.2,0.6-3.4,0.6
		c-3.8,0-7.7,0-11.5,0c-0.1,0-0.3,0-0.5,0c1.3,1.2,2.4,2.4,3.6,3.5c-0.8,0.8-1.5,1.5-2.3,2.3c-0.4-0.4-0.9-0.9-1.3-1.4
		c-1.6-1.6-3.2-3.2-4.8-4.8c-0.7-0.7-0.7-1.6,0-2.4c2-2,4-4,6-6c0.1-0.1,0.1-0.1,0.2-0.2c0.7,0.7,1.4,1.5,2.2,2.2
		c-1.2,1.2-2.3,2.3-3.6,3.6c0.2,0,0.3,0.1,0.5,0.1c3.9,0,7.8,0,11.7,0c3.2,0,5.9-2.4,6.3-5.6c0-0.2,0.1-0.5,0.1-0.7c1,0,2,0,3.1,0
		C46.2,30.5,46.2,31,46.1,31.4z"/>
</g>
</svg>
