<?xml version="1.0" encoding="utf-8"?>
<!-- Generator: Adobe Illustrator 23.0.3, SVG Export Plug-In . SVG Version: 6.00 Build 0)  -->
<svg version="1.1" id="Calque_1" xmlns="http://www.w3.org/2000/svg" xmlns:xlink="http://www.w3.org/1999/xlink" x="0px" y="0px"
	 width="60px" height="60px" viewBox="0 0 60 60" style="enable-background:new 0 0 60 60;" xml:space="preserve">
<style type="text/css">
	.st0{fill:#009434;}
</style>
<g>
	<g>
		<path class="st0" d="M40.7,28.7c-0.2-1.8-0.9-3.6-2.1-5l-2.2,2.2l-1.8-1.8l2.2-2.2c-1.5-1.1-3.2-1.9-5-2.1v3h-2.5v-3
			c-1.8,0.2-3.6,0.9-5,2.1l2.2,2.2l-1.8,1.8l-2.2-2.2c-1.1,1.5-1.9,3.2-2.1,5h3.1v2.5h-3.1c0.2,1.8,0.9,3.6,2.1,5l2.2-2.2l1.8,1.8
			L24.3,38c1.4,1.1,3.2,1.9,5,2.1v-3.1h2.5v3.1c1.8-0.2,3.6-0.9,5-2.1l-2.2-2.2l1.8-1.8l2.2,2.2c1.1-1.5,1.9-3.2,2.1-5h-3.1v-2.5
			H40.7z"/>
	</g>
	<g>
		<path class="st0" d="M44.7,11.4H14.9c-1.8,0-3.2,1.4-3.2,3.2v30.8c0,1.8,1.4,3.2,3.2,3.2h29.8c1.8,0,3.2-1.4,3.2-3.2v-2.1h-1.5
			v-8.5h1.5V25h-1.5v-8.5h1.5v-1.9C47.9,12.8,46.5,11.4,44.7,11.4z M30.6,43.1c-7.2,0-13.1-5.9-13.1-13.1s5.9-13.1,13.1-13.1
			c7.2,0,13.1,5.9,13.1,13.1S37.8,43.1,30.6,43.1z"/>
	</g>
	<g>
		<path class="st0" d="M49.1,3.9H10.9c-3.5,0-6.4,2.9-6.4,6.4v39.5c0,3.5,2.9,6.4,6.4,6.4h38.3c3.5,0,6.4-2.9,6.4-6.4V10.3
			C55.5,6.7,52.7,3.9,49.1,3.9z M52.1,25h-1.7v9.9h1.7v8.5h-1.7v2.1c0,3.1-2.6,5.7-5.7,5.7H14.9c-3.1,0-5.7-2.6-5.7-5.7V14.6
			c0-3.1,2.6-5.7,5.7-5.7h29.8c3.1,0,5.7,2.6,5.7,5.7v1.9h1.7V25z"/>
	</g>
</g>
</svg>
