<?xml version="1.0" encoding="utf-8"?>
<!-- Generator: Adobe Illustrator 24.0.0, SVG Export Plug-In . SVG Version: 6.00 Build 0)  -->
<svg version="1.1" id="Calque_2" xmlns="http://www.w3.org/2000/svg" xmlns:xlink="http://www.w3.org/1999/xlink" x="0px" y="0px"
	 viewBox="0 0 140 50" style="enable-background:new 0 0 140 50;" xml:space="preserve">
<style type="text/css">
	.st0{fill:#95C121;}
	.st1{fill:#FFCC00;}
	.st2{fill:#008237;}
	.st3{fill:#656564;}
</style>
<path class="st0" d="M120.24,28.95h-0.81c-5.52-4.64-8.85-7.52-11.12-9.59c-1.76-1.59-3.02-2.75-5.12-4.88h-0.07
	c0.07,1.39,0.07,2.27,0.07,3.12v10.95v0.07h-3.08h-2.75v-0.07v-11.8V1.94h0.81c5.76,4.88,9.15,7.8,11.42,9.93
	c1.53,1.42,3.05,2.85,4.78,4.61h0.07c-0.03-1.73-0.03-2.75-0.03-3.8V2.24V2.17h3.12h2.71v0.07v11.12V28.95z"/>
<path class="st1" d="M138.34,21.63c0,4.41-3.73,7.39-8.88,7.39c-1.83,0-4-0.31-5.29-0.92c0.03-1.97,0.07-2.64,0.17-5.59h0.07
	c0.44,0.24,0.88,0.41,1.36,0.58c0.81,0.27,1.8,0.44,2.98,0.44c1.63,0,2.81-0.75,2.81-2.27c0-0.91-0.64-1.76-1.73-2.64
	c-1.05-0.85-1.93-1.66-2.64-2.37c-1.46-1.46-2.98-3.53-2.98-6.44c0-3.97,2.64-7.8,9.08-7.8c1.22,0,2.81,0.17,3.76,0.47
	c-0.07,2.07-0.1,2.64-0.17,5.56h-0.07c-0.34-0.14-0.88-0.3-1.32-0.41c-0.47-0.1-0.98-0.17-1.63-0.17c-1.8,0-3.08,0.85-3.08,2.3
	c0,0.88,0.37,1.42,0.95,2.07c0.58,0.64,1.73,1.56,3.15,2.88c2.1,1.97,3.46,3.9,3.46,6.88V21.63z"/>
<path class="st2" d="M89.81,16.72L83.4,2.08l-2.91,6.2c1.17,3.34,4.13,11.52,4.13,11.52l-9.54-0.02l-2.37,5.04h13.73
	c0.78,1.97,1.39,3.46,1.46,3.69v0.1h3.8h3.25v-0.1C94.86,28.27,94.21,26.78,89.81,16.72z"/>
<path class="st3" d="M50.24,14.88c0,5.05-2.17,9.02-6,11.52c-2.34,1.56-5.46,2.3-8.98,2.3c-1.69,0-3.32-0.03-4.41-0.07
	c-0.71-0.03-1.73-0.1-2.44-0.17v-0.03V16.75v-3.39V2.58V2.31c0.68-0.07,1.53-0.17,3.08-0.24c1.63-0.07,2.91-0.1,4.17-0.1
	c4.03,0,6.98,0.81,9.19,2.17c4.1,2.54,5.39,6.85,5.39,10.71V14.88z M43.73,15.02c0-2.41-0.81-4.58-2.51-5.93
	c-1.19-0.91-2.78-1.46-4.81-1.46c-0.64,0-1.29,0.07-1.73,0.1v15.12c0,0.07,0.03,0.07,0.07,0.07c0.51,0.07,1.05,0.1,1.56,0.1
	c1.53,0,3.02-0.44,4.27-1.32c1.83-1.32,3.15-3.49,3.15-6.64V15.02z"/>
<path class="st3" d="M63.66,29.12h-0.81l-7.56-15.76C50.81,4,50.1,2.48,49.97,2.24V2.17h3.49h3.66v0.07
	c0.07,0.24,0.75,1.73,3.53,7.83c1.39,3.02,2,4.58,2.78,6.78h0.1c0.78-2.2,1.36-3.76,2.71-6.75c2.71-6.03,3.42-7.63,3.53-7.86V2.17
	h3.63h3.05v0.07c-0.1,0.24-0.78,1.76-5.25,11.12L63.66,29.12z"/>
<path class="st3" d="M9.61,24.82c-0.81,1.97-1.42,3.46-1.53,3.69v0.1H4.97H1.64v-0.1c0.1-0.24,0.78-1.73,5.25-11.8L13.54,1.7h0.88
	L21,16.72c4.41,10.07,5.05,11.56,5.15,11.8v0.1H22.9h-3.8v-0.1c-0.07-0.24-0.68-1.73-1.46-3.69H9.61z M15.81,19.8v-0.07
	c-1.36-3.42-1.86-4.98-2.1-5.86h-0.03c-0.24,0.88-0.78,2.44-2.17,5.86v0.07H15.81z"/>
<g id="PAYS_2_">
	<g>
		<path class="st2" d="M80.35,37.16c1.31,0,2.31,0.24,3,0.71c0.7,0.48,1.04,1.22,1.04,2.23c0,0.53-0.09,0.98-0.28,1.35
			c-0.19,0.38-0.46,0.68-0.81,0.92c-0.35,0.24-0.79,0.41-1.3,0.53c-0.51,0.11-1.09,0.17-1.75,0.17h-0.82v3.16H77.8v-8.86
			c0.38-0.09,0.8-0.14,1.26-0.17S79.96,37.16,80.35,37.16z M80.46,38.57c-0.42,0-0.76,0.01-1.02,0.04v3.06h0.79
			c0.79,0,1.39-0.11,1.82-0.33c0.42-0.22,0.64-0.64,0.64-1.25c0-0.29-0.06-0.54-0.17-0.74c-0.11-0.2-0.27-0.35-0.47-0.47
			c-0.2-0.11-0.43-0.19-0.71-0.24C81.07,38.6,80.77,38.57,80.46,38.57z"/>
		<path class="st2" d="M91.28,46.24c-0.12-0.35-0.25-0.7-0.38-1.05c-0.13-0.35-0.26-0.7-0.38-1.06h-3.8
			c-0.12,0.36-0.24,0.72-0.37,1.07c-0.13,0.35-0.25,0.7-0.37,1.04h-1.7c0.34-0.96,0.66-1.85,0.96-2.66c0.3-0.81,0.6-1.58,0.89-2.31
			c0.29-0.73,0.58-1.42,0.86-2.07c0.28-0.66,0.58-1.31,0.88-1.94h1.56c0.3,0.64,0.6,1.29,0.88,1.94c0.29,0.66,0.57,1.35,0.86,2.07
			c0.29,0.73,0.59,1.5,0.89,2.31c0.31,0.81,0.63,1.7,0.97,2.66H91.28z M88.63,38.99c-0.2,0.46-0.43,1.02-0.68,1.67
			c-0.26,0.66-0.52,1.37-0.8,2.14h2.96c-0.28-0.77-0.54-1.49-0.8-2.15C89.04,39.98,88.82,39.43,88.63,38.99z"/>
		<path class="st2" d="M99.54,46.24c-0.23-0.35-0.48-0.71-0.78-1.09c-0.29-0.38-0.6-0.75-0.93-1.1c-0.32-0.35-0.66-0.69-1-1.01
			c-0.35-0.32-0.69-0.6-1.02-0.83v4.03h-1.63v-8.99h1.63v3.71c0.29-0.29,0.58-0.59,0.89-0.91c0.31-0.32,0.62-0.65,0.93-0.99
			c0.31-0.33,0.6-0.65,0.88-0.97c0.28-0.31,0.53-0.59,0.75-0.84h1.96c-0.29,0.33-0.59,0.67-0.91,1.02
			c-0.32,0.35-0.65,0.71-0.99,1.07c-0.34,0.36-0.68,0.72-1.02,1.07c-0.34,0.35-0.68,0.69-1.01,1.01c0.36,0.28,0.73,0.6,1.11,0.97
			c0.38,0.37,0.75,0.76,1.11,1.18c0.36,0.42,0.71,0.86,1.04,1.31c0.33,0.45,0.64,0.91,0.91,1.35H99.54z"/>
		<path class="st2" d="M102.61,37.25h1.63v8.99h-1.63V37.25z"/>
		<path class="st2" d="M108.58,45.02c0.59,0,1.02-0.1,1.28-0.3c0.27-0.2,0.4-0.48,0.4-0.84c0-0.22-0.05-0.4-0.14-0.56
			c-0.09-0.16-0.22-0.3-0.39-0.42c-0.17-0.13-0.37-0.24-0.62-0.35c-0.24-0.11-0.52-0.21-0.83-0.32c-0.31-0.11-0.61-0.24-0.9-0.37
			c-0.29-0.13-0.54-0.3-0.77-0.5c-0.22-0.2-0.4-0.44-0.53-0.71c-0.13-0.28-0.2-0.61-0.2-1c0-0.81,0.28-1.45,0.84-1.91
			c0.56-0.46,1.33-0.69,2.29-0.69c0.56,0,1.06,0.06,1.5,0.19c0.44,0.13,0.78,0.26,1.03,0.41l-0.51,1.32
			c-0.29-0.16-0.62-0.29-0.97-0.38c-0.35-0.09-0.71-0.13-1.08-0.13c-0.44,0-0.78,0.09-1.03,0.27c-0.25,0.18-0.37,0.44-0.37,0.77
			c0,0.2,0.04,0.37,0.12,0.51c0.08,0.14,0.2,0.27,0.35,0.38c0.15,0.11,0.33,0.22,0.53,0.31c0.2,0.1,0.43,0.19,0.67,0.27
			c0.42,0.16,0.8,0.31,1.13,0.47c0.33,0.16,0.61,0.35,0.84,0.57c0.23,0.22,0.4,0.48,0.53,0.78c0.12,0.3,0.18,0.66,0.18,1.08
			c0,0.81-0.29,1.44-0.86,1.89c-0.57,0.45-1.42,0.67-2.52,0.67c-0.37,0-0.71-0.02-1.02-0.07c-0.31-0.05-0.58-0.11-0.82-0.18
			c-0.24-0.07-0.44-0.14-0.62-0.21c-0.17-0.07-0.31-0.14-0.41-0.2l0.48-1.34c0.23,0.13,0.55,0.26,0.95,0.39
			C107.53,44.95,108.01,45.02,108.58,45.02z"/>
		<path class="st2" d="M119.66,37.25v1.41h-2.76v7.57h-1.65v-7.57h-2.76v-1.41H119.66z"/>
		<path class="st2" d="M126.15,46.24c-0.12-0.35-0.25-0.7-0.38-1.05c-0.13-0.35-0.26-0.7-0.38-1.06h-3.8
			c-0.12,0.36-0.24,0.72-0.37,1.07c-0.13,0.35-0.25,0.7-0.37,1.04h-1.7c0.34-0.96,0.66-1.85,0.96-2.66c0.3-0.81,0.6-1.58,0.89-2.31
			c0.29-0.73,0.58-1.42,0.86-2.07c0.28-0.66,0.58-1.31,0.88-1.94h1.56c0.3,0.64,0.6,1.29,0.88,1.94c0.29,0.66,0.57,1.35,0.86,2.07
			c0.29,0.73,0.59,1.5,0.89,2.31c0.31,0.81,0.63,1.7,0.97,2.66H126.15z M123.49,38.99c-0.2,0.46-0.43,1.02-0.68,1.67
			c-0.26,0.66-0.52,1.37-0.8,2.14h2.96c-0.28-0.77-0.54-1.49-0.8-2.15C123.91,39.98,123.68,39.43,123.49,38.99z"/>
		<path class="st2" d="M135.09,46.24c-0.29-0.49-0.62-1.02-0.99-1.59c-0.36-0.57-0.74-1.14-1.13-1.71
			c-0.39-0.57-0.78-1.13-1.19-1.67c-0.4-0.54-0.78-1.03-1.15-1.46v6.43h-1.61v-8.99h1.34c0.35,0.36,0.72,0.79,1.12,1.29
			c0.4,0.5,0.8,1.01,1.2,1.55c0.4,0.54,0.79,1.07,1.17,1.61c0.38,0.54,0.71,1.04,1,1.51v-5.96h1.62v8.99H135.09z"/>
	</g>
	<g>
		<rect x="1.64" y="41.45" class="st2" width="70.33" height="0.79"/>
	</g>
</g>
</svg>
